<svg width="1153" height="578" viewBox="0 0 1153 578" fill="none" xmlns="http://www.w3.org/2000/svg">
<rect x="142" y="37" width="56" height="4" rx="2" fill="#696767" fill-opacity="0.6"/>
<rect x="278" y="37" width="56" height="4" rx="2" fill="#696767" fill-opacity="0.6"/>
<rect x="414" y="37" width="56" height="4" rx="2" fill="#696767" fill-opacity="0.6"/>
<rect x="550" y="37" width="56" height="4" rx="2" fill="#696767" fill-opacity="0.6"/>
<rect x="686" y="37" width="56" height="4" rx="2" fill="#696767" fill-opacity="0.6"/>
<rect x="822" y="37" width="56" height="4" rx="2" fill="#696767" fill-opacity="0.6"/>
<rect x="947" y="37" width="56" height="4" rx="2" fill="#696767" fill-opacity="0.6"/>
<rect x="923" y="285" width="56" height="4" rx="2" fill="#696767" fill-opacity="0.6"/>
<rect x="809" y="285" width="56" height="4" rx="2" fill="#696767" fill-opacity="0.6"/>
<rect x="688" y="285" width="56" height="4" rx="2" fill="#696767" fill-opacity="0.6"/>
<rect x="567" y="285" width="56" height="4" rx="2" fill="#696767" fill-opacity="0.6"/>
<rect x="446" y="285" width="56" height="4" rx="2" fill="#696767" fill-opacity="0.6"/>
<rect x="325" y="285" width="56" height="4" rx="2" fill="#696767" fill-opacity="0.6"/>
<rect x="204" y="285" width="56" height="4" rx="2" fill="#696767" fill-opacity="0.6"/>
<rect x="186" y="538" width="56" height="4" rx="2" fill="#696767" fill-opacity="0.6"/>
<rect x="311" y="538" width="56" height="4" rx="2" fill="#696767" fill-opacity="0.6"/>
<rect x="428" y="538" width="56" height="4" rx="2" fill="#696767" fill-opacity="0.6"/>
<rect x="546" y="538" width="56" height="4" rx="2" fill="#696767" fill-opacity="0.6"/>
<rect x="664" y="538" width="56" height="4" rx="2" fill="#696767" fill-opacity="0.6"/>
<rect x="782" y="538" width="56" height="4" rx="2" fill="#696767" fill-opacity="0.6"/>
<rect x="900" y="538" width="56" height="4" rx="2" fill="#696767" fill-opacity="0.6"/>
<rect x="1018" y="538" width="56" height="4" rx="2" fill="#696767" fill-opacity="0.6"/>
<path d="M1064.15 63.3263C1063.88 61.8457 1065.4 60.6853 1066.76 61.3373L1074.49 65.0555C1074.82 65.214 1075.14 65.4013 1075.43 65.6152L1079.15 68.2972C1083.11 71.1463 1086.69 74.4813 1089.81 78.2236L1093.45 82.5886C1094.12 83.3992 1094.71 84.2846 1095.19 85.2253C1097.41 89.5899 1098.93 92.5829 1101.1 96.8449C1101.63 97.8806 1101.16 99.1472 1100.09 99.5959C1099.12 100.003 1098 99.5842 1097.53 98.6389L1092.3 88.0792C1091.8 87.0542 1091.17 86.0927 1090.44 85.2144L1086.94 81.0235C1083.78 77.2334 1080.16 73.8559 1076.15 70.9704L1073.07 68.7507C1072.4 68.2656 1071.69 67.839 1070.94 67.4755L1065.15 64.6541C1064.62 64.3969 1064.25 63.9038 1064.15 63.3263Z" fill="#696767" fill-opacity="0.6"/>
<path d="M1112.63 153.629C1113.67 152.522 1115.53 153.078 1115.79 154.575L1117.3 163.161C1117.36 163.515 1117.4 163.874 1117.4 164.235L1117.4 168.928C1117.4 173.881 1116.79 178.816 1115.58 183.62L1114.16 189.285C1113.9 190.3 1113.53 191.285 1113.06 192.22C1110.81 196.689 1109.27 199.744 1107.07 204.102C1106.54 205.149 1105.23 205.521 1104.24 204.906C1103.34 204.357 1103.03 203.212 1103.51 202.282L1109.05 191.594C1109.58 190.567 1109.99 189.482 1110.27 188.361L1111.63 182.949C1112.86 178.084 1113.47 173.086 1113.47 168.069L1113.47 164.199C1113.47 163.355 1113.4 162.512 1113.26 161.679L1112.15 155.205C1112.06 154.634 1112.23 154.051 1112.63 153.629Z" fill="#696767" fill-opacity="0.6"/>
<path d="M1077.76 249.936C1079.26 249.798 1080.29 251.417 1079.52 252.711L1075.14 260.09C1074.95 260.405 1074.74 260.702 1074.5 260.979L1071.5 264.453C1068.32 268.142 1064.69 271.417 1060.69 274.2L1056.02 277.446C1055.15 278.049 1054.22 278.553 1053.24 278.948C1048.7 280.78 1045.59 282.037 1041.15 283.827C1040.07 284.262 1038.85 283.689 1038.5 282.582C1038.18 281.577 1038.69 280.496 1039.68 280.113L1050.65 275.827C1051.72 275.411 1052.73 274.871 1053.67 274.218L1058.15 271.102C1062.2 268.283 1065.88 264.967 1069.1 261.23L1071.58 258.355C1072.12 257.727 1072.61 257.054 1073.04 256.342L1076.35 250.822C1076.66 250.319 1077.18 249.99 1077.76 249.936Z" fill="#696767" fill-opacity="0.6"/>
<path d="M88.0074 320.825C86.5079 320.701 85.7813 318.929 86.7621 317.788L92.355 311.281C92.5935 311.004 92.8559 310.748 93.1392 310.517L96.693 307.616C100.468 304.535 104.616 301.941 109.038 299.895L114.197 297.509C115.155 297.066 116.161 296.731 117.194 296.512C121.984 295.496 125.27 294.8 129.948 293.807C131.085 293.566 132.188 294.342 132.344 295.494C132.486 296.539 131.791 297.514 130.756 297.721L119.204 300.036C118.083 300.261 116.992 300.617 115.954 301.097L111.001 303.388C106.522 305.46 102.322 308.087 98.4983 311.207L95.5571 313.608C94.9144 314.132 94.3177 314.711 93.7736 315.337L89.5502 320.198C89.1653 320.641 88.5923 320.874 88.0074 320.825Z" fill="#696767" fill-opacity="0.6"/>
<path d="M43.8435 433.578C42.9862 434.814 41.0884 434.558 40.5906 433.138L37.7517 425.04C37.6307 424.695 37.5403 424.34 37.4817 423.979L36.7469 419.451C35.9663 414.641 35.7936 409.752 36.2331 404.899L36.7457 399.239C36.8409 398.188 37.0543 397.149 37.3809 396.145C38.8963 391.488 39.9355 388.295 41.4153 383.747C41.7749 382.642 42.9985 382.074 44.0738 382.515C45.0497 382.915 45.5467 384.005 45.2091 385.004L41.4375 396.166C41.0714 397.249 40.8344 398.372 40.7312 399.511L40.2391 404.946C39.794 409.861 39.9689 414.812 40.7595 419.683L41.3677 423.431C41.5006 424.25 41.7032 425.056 41.9735 425.84L44.0713 431.928C44.2625 432.483 44.1779 433.095 43.8435 433.578Z" fill="#696767" fill-opacity="0.6"/>
<path d="M116.782 530.569C117.303 531.98 116.005 533.387 114.556 532.981L106.295 530.662C105.943 530.563 105.6 530.433 105.27 530.274L101.14 528.279C96.7522 526.16 92.6484 523.497 88.9251 520.353L84.5824 516.687C83.7758 516.006 83.0474 515.235 82.4125 514.392C79.4669 510.479 77.4469 507.796 74.5706 503.976C73.8716 503.048 74.1084 501.72 75.0862 501.092C75.9736 500.522 77.1512 500.739 77.776 501.589L84.7562 511.081C85.4337 512.002 86.2175 512.84 87.0913 513.578L91.2608 517.098C95.0316 520.282 99.1878 522.979 103.632 525.125L107.05 526.777C107.797 527.137 108.574 527.434 109.371 527.662L115.561 529.436C116.125 529.597 116.579 530.018 116.782 530.569Z" fill="#696767" fill-opacity="0.6"/>
<g opacity="0.2">
<mask id="path-29-inside-1_50_3" fill="white">
<path d="M1 38.5C1 17.237 18.237 0 39.5 0H991V77H39.5C18.237 77 1 59.763 1 38.5Z"/>
</mask>
<path d="M-1 38.5C-1 16.1325 17.1325 -2 39.5 -2H991V2H39.5C19.3416 2 3 18.3416 3 38.5H-1ZM991 79H39.5C17.1325 79 -1 60.8675 -1 38.5H3C3 58.6584 19.3416 75 39.5 75H991V79ZM39.5 79C17.1325 79 -1 60.8675 -1 38.5C-1 16.1325 17.1325 -2 39.5 -2V2C19.3416 2 3 18.3416 3 38.5C3 58.6584 19.3416 75 39.5 75V79ZM991 0V77V0Z" fill="black" mask="url(#path-29-inside-1_50_3)"/>
</g>
<g opacity="0.2">
<mask id="path-31-inside-2_50_3" fill="white">
<path d="M166 251H991V327H166V251Z"/>
</mask>
<path d="M166 253H991V249H166V253ZM991 325H166V329H991V325Z" fill="black" mask="url(#path-31-inside-2_50_3)"/>
</g>
<g opacity="0.2">
<mask id="path-33-inside-3_50_3" fill="white">
<path d="M165 502H1115C1135.99 502 1153 519.013 1153 540C1153 560.987 1135.99 578 1115 578H165V502Z"/>
</mask>
<path d="M165 500H1115C1137.09 500 1155 517.909 1155 540H1151C1151 520.118 1134.88 504 1115 504H165V500ZM1155 540C1155 562.091 1137.09 580 1115 580H165V576H1115C1134.88 576 1151 559.882 1151 540H1155ZM165 578V502V578ZM1115 500C1137.09 500 1155 517.909 1155 540C1155 562.091 1137.09 580 1115 580V576C1134.88 576 1151 559.882 1151 540C1151 520.118 1134.88 504 1115 504V500Z" fill="black" mask="url(#path-33-inside-3_50_3)"/>
</g>
<path fill-rule="evenodd" clip-rule="evenodd" d="M1152 163.5C1152 142.031 1147.84 120.772 1139.75 100.936C1131.66 81.1007 1119.8 63.0766 1104.85 47.8935C1089.9 32.7104 1072.15 20.6657 1052.62 12.4478C1033.08 4.22991 1012.15 0 991 0V2C1011.88 2 1032.55 6.17646 1051.84 14.2913C1071.13 22.4062 1088.66 34.3008 1103.42 49.2967C1118.19 64.2927 1129.9 82.0964 1137.89 101.692C1145.89 121.287 1150 142.289 1150 163.5C1150 184.711 1145.89 205.713 1137.89 225.308C1129.9 244.904 1118.19 262.707 1103.42 277.703C1088.66 292.699 1071.13 304.594 1051.84 312.709C1032.55 320.824 1011.88 325 991 325V327C1012.15 327 1033.08 322.77 1052.62 314.552C1072.15 306.334 1089.9 294.29 1104.85 279.106C1119.8 263.923 1131.66 245.899 1139.75 226.064C1147.84 206.228 1152 184.969 1152 163.5ZM1079 164C1079 140.399 1069.73 117.763 1053.23 101.072C1036.73 84.3796 1014.34 75 991 75V77C1013.8 77 1035.68 86.1632 1051.81 102.478C1067.94 118.792 1077 140.923 1077 164C1077 187.078 1067.94 209.208 1051.81 225.522C1035.68 241.837 1013.8 251 991 251V253C1014.34 253 1036.73 243.62 1053.23 226.928C1069.73 210.237 1079 187.601 1079 164Z" fill="#B5B5B5"/>
<path fill-rule="evenodd" clip-rule="evenodd" d="M3.05176e-05 414.5C3.05176e-05 435.973 4.29459 457.236 12.6381 477.074C20.9816 496.912 33.2105 514.936 48.6257 530.117C64.0409 545.299 82.3406 557.341 102.48 565.556C122.618 573.772 144.203 578 166 578V576C144.461 576 123.134 571.822 103.235 563.705C83.3365 555.587 65.2572 543.69 50.0291 528.692C34.801 513.695 22.7222 495.891 14.4817 476.298C6.24117 456.705 2.00003 435.706 2.00003 414.5C2.00003 393.294 6.24117 372.295 14.4817 352.702C22.7222 333.109 34.801 315.305 50.0291 300.308C65.2572 285.31 83.3365 273.413 103.235 265.296C123.133 257.178 144.461 253 166 253V251C144.203 251 122.618 255.228 102.48 263.444C82.3406 271.659 64.0409 283.701 48.6257 298.883C33.2105 314.064 20.9816 332.088 12.6381 351.926C4.29459 371.764 3.05176e-05 393.027 3.05176e-05 414.5ZM76.8839 414.55C76.8839 438.274 86.326 461.026 103.133 477.801C119.939 494.576 142.733 504 166.5 504V502C143.262 502 120.976 492.786 104.545 476.386C88.1144 459.986 78.8839 437.743 78.8839 414.55C78.8839 391.357 88.1144 369.114 104.545 352.714C120.976 336.314 143.262 327.1 166.5 327.1V325.1C142.733 325.1 119.939 334.524 103.133 351.299C86.326 368.074 76.8839 390.826 76.8839 414.55Z" fill="#B5B5B5"/>
<rect x="41" y="37" width="56" height="4" rx="2" fill="#696767" fill-opacity="0.6"/>
</svg>
