<svg width="21" height="20" viewBox="0 0 21 20" fill="none" xmlns="http://www.w3.org/2000/svg">
<path d="M14.7725 0C14.3192 0.0251426 13.8658 0.0754279 13.4376 0.226284C12.7575 0.47771 12.1027 0.85485 11.5485 1.40799C11.3891 1.50888 11.2544 1.64426 11.1545 1.80411C11.0545 1.96396 10.9918 2.1442 10.9711 2.33149C10.9503 2.51879 10.972 2.70834 11.0345 2.88614C11.097 3.06394 11.1988 3.22544 11.3323 3.35868C11.4658 3.49193 11.6276 3.59351 11.8057 3.65593C11.9838 3.71834 12.1737 3.73999 12.3613 3.71926C12.5489 3.69854 12.7295 3.63597 12.8896 3.5362C13.0498 3.43642 13.1854 3.30198 13.2865 3.14283C13.5635 2.86626 13.891 2.71541 14.2436 2.58969C15.1252 2.28798 16.2082 2.41369 16.9135 3.14283C17.8958 4.12339 17.8958 5.75767 16.9135 6.76337L13.1353 10.5348C12.0271 11.641 11.1203 11.7416 10.4655 11.7165C9.81058 11.6913 9.43277 11.3896 9.43277 11.3896C9.28723 11.3071 9.12683 11.254 8.96072 11.2333C8.79462 11.2126 8.62606 11.2248 8.46468 11.2692C8.3033 11.3135 8.15225 11.3892 8.02015 11.4918C7.88806 11.5944 7.77751 11.722 7.69482 11.8673C7.61213 12.0126 7.55891 12.1727 7.53821 12.3385C7.51751 12.5043 7.52972 12.6726 7.57416 12.8337C7.6186 12.9948 7.69439 13.1456 7.79721 13.2774C7.90002 13.4093 8.02785 13.5196 8.17338 13.6022C8.17338 13.6022 9.02977 14.1553 10.2891 14.2307C11.5485 14.3062 13.3117 13.8285 14.8481 12.2696L18.6263 8.49821C20.5909 6.53709 20.5909 3.36911 18.6263 1.43313C17.921 0.729137 17.0898 0.301712 16.1831 0.100571C15.7297 0 15.2259 0 14.7725 0.0251426V0ZM9.73502 5.80795C8.47564 5.75766 6.73769 6.18509 5.25162 7.69365L1.47348 11.465C-0.491159 13.4262 -0.491159 16.5941 1.47348 18.5301C2.88398 19.9381 4.89899 20.3404 6.66213 19.7118C7.34219 19.4604 7.99707 19.0833 8.5512 18.5301C8.71064 18.4292 8.84531 18.2939 8.94527 18.134C9.04522 17.9742 9.1079 17.7939 9.12866 17.6066C9.14943 17.4193 9.12774 17.2298 9.06522 17.052C9.00269 16.8742 8.90092 16.7127 8.76744 16.5794C8.63396 16.4462 8.47217 16.3446 8.29405 16.2822C8.11594 16.2198 7.92604 16.1981 7.73841 16.2189C7.55078 16.2396 7.37022 16.3021 7.21008 16.4019C7.04994 16.5017 6.91432 16.6361 6.81325 16.7953C6.53619 17.0719 6.20875 17.2227 5.85612 17.3484C4.97456 17.6501 3.89149 17.5244 3.18623 16.7953C2.20392 15.8147 2.20392 14.1804 3.18623 13.1747L6.96438 9.40335C7.97188 8.39764 8.85345 8.27193 9.5587 8.29707C10.264 8.32221 10.7425 8.52336 10.7425 8.52336C10.8901 8.63384 11.0602 8.71061 11.2408 8.74824C11.4213 8.78588 11.608 8.78346 11.7875 8.74115C11.967 8.69885 12.1351 8.61769 12.2797 8.50342C12.4243 8.38915 12.5421 8.24455 12.6246 8.07986C12.7071 7.91516 12.7523 7.73439 12.7571 7.55031C12.7619 7.36624 12.7261 7.18336 12.6523 7.01461C12.5785 6.84586 12.4685 6.69536 12.3299 6.57374C12.1914 6.45212 12.0279 6.36236 11.8508 6.3108C11.8508 6.3108 10.9944 5.80795 9.73502 5.75766V5.80795Z" fill="black" fill-opacity="0.5"/>
</svg>
